<svg width="272" height="240" viewBox="0 0 272 240" fill="none" xmlns="http://www.w3.org/2000/svg">
<line x1="77" y1="12.5" x2="167" y2="12.5" stroke="black"/>
<line x1="77" y1="238.5" x2="271" y2="238.5" stroke="black"/>
<line x1="163.451" y1="12.7844" x2="271.451" y2="238.784" stroke="black"/>
<line x1="77.5" y1="2.80649e-10" x2="77.5" y2="240" stroke="black"/>
<line x1="3.5" y1="239" x2="3.49999" y2="1.45056e-08" stroke="black"/>
<line x1="14.5" y1="60" x2="14.5" y2="28" stroke="black"/>
<line x1="57.5" y1="28" x2="57.5" y2="60" stroke="black"/>
<line x1="15.5" y1="97" x2="15.5" y2="129" stroke="black"/>
<line x1="57.5" y1="97" x2="57.5" y2="127" stroke="black"/>
<line x1="15.5" y1="167" x2="15.5" y2="199" stroke="black"/>
<line x1="57.5" y1="167" x2="57.5" y2="199" stroke="black"/>
<line x1="77" y1="0.5" y2="0.5" stroke="black"/>
<line x1="3.99315" y1="239.5" x2="76.9793" y2="238.5" stroke="black"/>
<line x1="4" y1="27.5" x2="77" y2="27.5" stroke="black"/>
<line x1="4" y1="59.5" x2="77" y2="59.5" stroke="black"/>
<line x1="4" y1="166.5" x2="77" y2="166.5" stroke="black"/>
<line x1="4" y1="198.5" x2="77" y2="198.5" stroke="black"/>
<line x1="4" y1="96.5" x2="77" y2="96.5" stroke="black"/>
<line x1="4" y1="128.5" x2="77" y2="128.5" stroke="black"/>
<line x1="38.5" x2="38.5" y2="28" stroke="black"/>
<line x1="40.5" y1="60" x2="40.5" y2="97" stroke="black"/>
<line x1="38.4994" y1="126.975" x2="40.4994" y2="166.975" stroke="black"/>
<line x1="38.5" y1="199" x2="38.5" y2="235" stroke="black"/>
</svg>
